<svg viewBox="0 0 19 11" fill="none" xmlns="http://www.w3.org/2000/svg">
<path d="M6.90776 5.50825C6.90776 3.83022 7.69569 2.22846 9.0398 1.19113C6.62967 -0.68521 3.12262 -0.273329 1.22232 2.10642C-0.677977 4.48618 -0.260838 7.94902 2.16474 9.81011C4.18864 11.3814 7.01591 11.3814 9.0398 9.82537C7.69569 8.77279 6.90776 7.18628 6.90776 5.50825Z" fill="currentColor"/>
<path d="M18.0314 5.50826C18.0314 8.54397 15.544 11 12.4696 11C11.2182 11 10.0131 10.5881 9.0398 9.82537C11.4499 7.94902 11.867 4.48619 9.98219 2.10644C9.7041 1.75558 9.39511 1.45048 9.03977 1.17589C11.4499 -0.700452 14.957 -0.288572 16.8572 2.10644C17.6143 3.06749 18.0314 4.27262 18.0314 5.50826Z" fill="currentColor"/>
<path d="M9.02906 8C9.66098 7.39929 10.0314 6.47173 10.0314 5.5C10.0314 4.52827 9.66098 3.60954 9.02907 3C7.89597 4.08657 7.69985 6.09187 8.58599 7.46996C8.71673 7.67314 8.86201 7.84099 9.02906 8Z" fill="currentColor"/>
</svg>
