
<svg viewBox="0 0 27 9" fill="none" xmlns="http://www.w3.org/2000/svg">
<path d="M11.2454 0.17334L9.40826 8.94257H11.6351L13.4165 0.17334H11.2454Z" fill="currentColor"/>
<path d="M8.01649 0.172927L5.73402 6.11523L4.78763 1.03831C4.67629 0.461388 4.23093 0.172927 3.78557 0.172927H0.0556701L0 0.403696C0.779381 0.576773 1.61443 0.865234 2.17113 1.1537C2.50515 1.32677 2.56082 1.49985 2.67216 1.9037L4.39794 8.88446H6.73608L10.299 0.115234H8.01649V0.172927Z" fill="currentColor"/>
<path d="M25.3299 0.17334H23.4371C22.9917 0.17334 22.6577 0.404109 22.4907 0.807955L19.2062 8.94257H21.4887L21.934 7.61565H24.7175L24.9959 8.94257H27L25.3299 0.17334ZM22.6577 5.82719L23.8268 2.53872L24.4948 5.82719H22.6577Z" fill="currentColor"/>
<path d="M16.3113 2.59615C16.3113 2.30769 16.5897 1.96154 17.2577 1.84615C17.5917 1.78846 18.4268 1.78846 19.4288 2.25L19.8185 0.403846C19.3175 0.230769 18.5938 0 17.7587 0C15.5876 0 14.0845 1.21154 14.0845 2.88462C14.0845 4.15385 15.1979 4.84615 15.9773 5.25C16.8123 5.65385 17.0907 5.94231 17.0907 6.34615C17.0907 6.92308 16.4227 7.21154 15.7546 7.21154C14.6412 7.21154 14.0288 6.92308 13.5278 6.63462L13.1381 8.53846C13.6392 8.76923 14.5855 9 15.5876 9C17.8701 9 19.3732 7.84615 19.3732 6C19.3732 3.80769 16.2556 3.63462 16.3113 2.59615Z" fill="currentColor"/>
</svg>
