<svg width="16" height="16" viewBox="0 0 16 16" fill="none" xmlns="http://www.w3.org/2000/svg">
<path fill-rule="evenodd" clip-rule="evenodd" d="M3.53094 6.49312C3.50141 6.82222 3.5 7.26382 3.5 7.985V10.265C3.5 10.9862 3.50141 11.4278 3.53094 11.7569C3.5447 11.9101 3.56192 12.0019 3.57628 12.0571C3.58918 12.1066 3.59849 12.1215 3.59853 12.1216C3.66507 12.2383 3.76173 12.3349 3.87841 12.4015L3.14154 13.6933L3.87841 12.4015L3.87841 12.4015C3.8788 12.4017 3.89395 12.411 3.94294 12.4237C3.99807 12.4381 4.08988 12.4553 4.24312 12.4691C4.57222 12.4986 5.01382 12.5 5.735 12.5H8.015C8.73618 12.5 9.17778 12.4986 9.50688 12.4691C9.66012 12.4553 9.75193 12.4381 9.80706 12.4237C9.85607 12.411 9.87121 12.4017 9.87159 12.4015L9.87159 12.4015L10.5347 13.564L9.87159 12.4015C9.98827 12.3349 10.0849 12.2383 10.1515 12.1216L11.314 12.7847L10.1515 12.1216L10.1515 12.1216C10.1517 12.1212 10.161 12.1061 10.1737 12.0571C10.1881 12.0019 10.2053 11.9101 10.2191 11.7569C10.2486 11.4278 10.25 10.9862 10.25 10.265V7.985C10.25 7.26382 10.2486 6.82222 10.2191 6.49312C10.2053 6.33988 10.1881 6.24807 10.1737 6.19294C10.1608 6.1434 10.1515 6.12847 10.1515 6.12841L11.4433 5.39154L10.1515 6.12841C10.0849 6.01173 9.98826 5.91507 9.87159 5.84853L10.4066 4.91051L9.87159 5.84853C9.87153 5.84849 9.85661 5.83918 9.80706 5.82628C9.75194 5.81192 9.66012 5.7947 9.50688 5.78094C9.17778 5.75141 8.73618 5.75 8.015 5.75H5.735C5.01382 5.75 4.57222 5.75141 4.24312 5.78094C4.08988 5.7947 3.99807 5.81192 3.94294 5.82628C3.89397 5.83903 3.87882 5.84827 3.87841 5.84852L3.87841 5.84853C3.76173 5.91507 3.66508 6.01173 3.59853 6.12841L3.59852 6.12841C3.59827 6.12882 3.58903 6.14397 3.57628 6.19294C3.56192 6.24807 3.5447 6.33988 3.53094 6.49312ZM2.29558 5.38522C2 5.90342 2 6.59728 2 7.985V10.265C2 11.6527 2 12.3466 2.29558 12.8648C2.49522 13.2148 2.7852 13.5048 3.13522 13.7044C3.65342 14 4.34728 14 5.735 14H8.015C9.40272 14 10.0966 14 10.6148 13.7044C10.9648 13.5048 11.2548 13.2148 11.4544 12.8648C11.75 12.3466 11.75 11.6527 11.75 10.265V7.985C11.75 6.59728 11.75 5.90342 11.4544 5.38522C11.2548 5.0352 10.9648 4.74522 10.6148 4.54558C10.0966 4.25 9.40272 4.25 8.015 4.25H5.735C4.34728 4.25 3.65342 4.25 3.13522 4.54558C2.7852 4.74522 2.49522 5.0352 2.29558 5.38522Z" fill="currentColor"/>
<path fill-rule="evenodd" clip-rule="evenodd" d="M8.71986 0.949951H11.0297C11.7109 0.949949 12.2424 0.949948 12.6676 0.988099C13.0998 1.02689 13.4512 1.10698 13.7632 1.28494C14.1599 1.51121 14.4885 1.83985 14.7148 2.23653C14.8928 2.54853 14.9728 2.89989 15.0116 3.33218C15.0498 3.75731 15.0498 4.28881 15.0498 4.97005V7.27985C15.0498 7.96109 15.0498 8.49259 15.0116 8.91772C14.9728 9.35001 14.8928 9.70137 14.7148 10.0134C14.4885 10.4101 14.1599 10.7387 13.7632 10.965L13.3256 11.2146L13.2838 9.29277L13.325 9.22063C13.342 9.19086 13.3891 9.09742 13.418 8.77471C13.4486 8.43464 13.4498 7.98269 13.4498 7.26495V4.98495C13.4498 4.26722 13.4486 3.81526 13.418 3.47519C13.3891 3.15248 13.342 3.05905 13.325 3.02927C13.2407 2.88148 13.1183 2.75904 12.9705 2.67475C12.9407 2.65777 12.8473 2.61066 12.5245 2.5817C12.1845 2.55118 11.7325 2.54995 11.0148 2.54995H8.73479C8.01705 2.54995 7.5651 2.55118 7.22503 2.5817C6.90231 2.61066 6.80888 2.65777 6.7791 2.67475L6.70697 2.71589L4.78516 2.67416L5.03478 2.23653C5.26104 1.83985 5.58968 1.51121 5.98637 1.28494C6.29837 1.10698 6.64973 1.02689 7.08201 0.988099C7.50714 0.949948 8.03864 0.949949 8.71986 0.949951Z" fill="currentColor"/>
</svg>
