<svg width="24" height="24" viewBox="0 0 24 24" fill="none" xmlns="http://www.w3.org/2000/svg">
<path d="M3.5 11.0526C3.5 11.0526 5.85565 15.7639 12.1374 15.7639C18.4191 15.7639 20.7748 11.0526 20.7748 11.0526M3.5 11.4452C3.5 11.4452 5.85565 6.73389 12.1374 6.73389C18.4191 6.73389 20.7748 11.4452 20.7748 11.4452" stroke="#232323"/>
<path fill-rule="evenodd" clip-rule="evenodd" d="M16.8484 8.69694C16.8484 11.2989 14.7391 13.4082 12.1371 13.4082C9.5351 13.4082 7.42578 11.2989 7.42578 8.69694C7.42578 8.36942 7.4592 8.04971 7.52282 7.74102C8.73949 7.15291 10.2637 6.73389 12.1371 6.73389C14.0105 6.73389 15.5347 7.15291 16.7514 7.74103C16.815 8.04971 16.8484 8.36942 16.8484 8.69694ZM9.40804 9.021C9.22401 9.13672 9.13163 9.22884 9.10769 9.26373L8.60348 8.91772C8.6984 8.7794 8.87516 8.63371 9.08251 8.50332C9.29889 8.36726 9.57739 8.22988 9.90334 8.11921C10.5554 7.89781 11.4112 7.77888 12.3497 8.00601L12.2058 8.60037C11.3999 8.40531 10.6634 8.50694 10.0999 8.69826C9.81813 8.79394 9.58303 8.91096 9.40804 9.021Z" fill="#232323"/>
</svg>
