<svg viewBox="0 0 109 88" fill="none" xmlns="http://www.w3.org/2000/svg">
<g clip-path="url(#clip0)">
<path d="M44.1673 52.8269C44.0097 52.8009 42.3289 51.9929 41.5936 52.9312C40.6482 54.1562 42.4602 55.694 42.4602 55.694C42.4602 55.694 40.7007 55.3291 40.2017 56.4759C39.7028 57.5966 41.2522 58.6913 41.2522 58.6913C41.2522 58.6913 39.3351 58.7695 39.3614 60.1509C39.3876 62.1057 43.0117 62.4706 43.0117 62.4706" fill="#FBFBFB"/>
<path d="M44.1673 52.8269C44.0097 52.8009 42.3289 51.9929 41.5936 52.9312C40.6482 54.1562 42.4602 55.694 42.4602 55.694C42.4602 55.694 40.7007 55.3291 40.2017 56.4759C39.7028 57.5966 41.2522 58.6913 41.2522 58.6913C41.2522 58.6913 39.3351 58.7695 39.3614 60.1509C39.3876 62.1057 43.0117 62.4706 43.0117 62.4706" stroke="#232323" stroke-width="1.4" stroke-miterlimit="10"/>
<path d="M44.64 53.0979C44.64 53.0979 46.0057 54.5054 47.9753 54.5054C49.9449 54.5054 51.3602 53.0197 51.3602 53.0197L55.6437 61.0474L49.9975 72.7501C49.9975 72.7501 43.0643 75.565 40.8583 72.8804C38.6524 70.1958 42.4341 67.6676 42.9068 63.4192C43.1694 60.9171 43.432 53.0197 43.432 53.0197L44.64 53.0979Z" fill="#FBFBFB"/>
<path d="M50.3666 75.0695C51.4958 74.9131 52.8352 73.9227 52.8089 72.2807C52.7827 70.7951 52.0211 70.4823 52.1524 69.2052C52.31 67.511 54.1745 66.2599 53.9382 64.5658C53.6493 62.4807 51.7059 61.8551 50.4454 59.9786C48.6858 57.3722 48.7909 54.3227 48.7909 54.3227" fill="#FBFBFB"/>
<path d="M50.3666 75.0695C51.4958 74.9131 52.8352 73.9227 52.8089 72.2807C52.7827 70.7951 52.0211 70.4823 52.1524 69.2052C52.31 67.511 54.1745 66.2599 53.9382 64.5658C53.6493 62.4807 51.7059 61.8551 50.4454 59.9786C48.6858 57.3722 48.7909 54.3227 48.7909 54.3227" stroke="#232323" stroke-width="1.4" stroke-miterlimit="10"/>
<path d="M47.5551 54.4782C47.5551 54.4782 46.846 58.1011 47.949 60.0298C49.3146 62.4538 51.7307 63.1054 51.5469 65.1123C51.2843 67.8229 48.9732 68.5267 48.7631 70.7681C48.5793 72.8272 51.0742 73.8697 50.8641 75.9549C50.6802 77.8836 50.3388 80.0208 47.6076 79.7602C45.0077 79.4995 46.1895 77.4144 46.7147 75.5118C47.345 73.166 41.6199 75.2772 40.2806 71.9671C39.125 69.074 42.6441 68.3442 42.7754 63.2617C42.9067 58.1532 46.8985 54.4522 46.8985 54.4522L47.5551 54.4782Z" fill="#FBFBFB" stroke="#232323" stroke-width="1.4" stroke-miterlimit="10"/>
<path d="M19.6171 33.8004C19.6171 33.8004 19.2757 32.8099 18.199 32.6275C17.1485 32.4451 16.7283 33.2009 16.2556 33.9568C15.7829 34.7126 10.8719 45.3467 10.8719 45.3467L17.7263 41.1504L19.6171 33.8004Z" fill="#FBFBFB" stroke="#232323" stroke-width="1.4" stroke-miterlimit="10"/>
<path d="M9.58636 49.9079C9.58636 49.9079 8.01065 43.809 7.53794 41.1765C7.14401 38.8568 7.66925 37.9446 8.82477 37.71C9.77019 37.5276 10.6631 38.2574 10.9782 39.6909C11.1883 40.551 12.055 44.5127 12.055 44.5127" fill="#FBFBFB"/>
<path d="M9.58636 49.9079C9.58636 49.9079 8.01065 43.809 7.53794 41.1765C7.14401 38.8568 7.66925 37.9446 8.82477 37.71C9.77019 37.5276 10.6631 38.2574 10.9782 39.6909C11.1883 40.551 12.055 44.5127 12.055 44.5127" stroke="#232323" stroke-width="1.4" stroke-miterlimit="10"/>
<path d="M10.0312 72.2966C11.108 72.6615 12.7362 72.3488 13.4715 70.8631C14.1281 69.5339 13.5766 68.9083 14.2594 67.8137C15.1523 66.3802 17.3846 66.0674 17.9361 64.4514C18.5926 62.4445 17.1482 61.0371 16.8593 58.8216C16.4654 55.72 17.9098 53.0094 17.9098 53.0094" stroke="#232323" stroke-width="1.4" stroke-miterlimit="10"/>
<path d="M3.01518 54C4.12813 54 5.03036 53.1046 5.03036 52C5.03036 50.8954 4.12813 50 3.01518 50C1.90222 50 1 50.8954 1 52C1 53.1046 1.90222 54 3.01518 54Z" fill="#232323"/>
<path d="M36.5 46C37.3284 46 38 45.3284 38 44.5C38 43.6716 37.3284 43 36.5 43C35.6716 43 35 43.6716 35 44.5C35 45.3284 35.6716 46 36.5 46Z" fill="#232323"/>
<path d="M83.8019 63.0093C84.0485 63.0093 84.2484 62.8109 84.2484 62.5662C84.2484 62.3215 84.0485 62.1231 83.8019 62.1231C83.5554 62.1231 83.3555 62.3215 83.3555 62.5662C83.3555 62.8109 83.5554 63.0093 83.8019 63.0093Z" fill="#232323"/>
<path d="M66 28.9542V29.0458C64.7692 29.0458 64.0615 29.7786 64.0615 31H63.9385C63.9385 29.7786 63.2 29.0458 62 29.0458V28.9542C63.2 28.9542 63.9385 28.2214 63.9385 27H64.0615C64.0615 28.2214 64.7692 28.9542 66 28.9542Z" fill="#232323"/>
<path d="M35.0856 25.33V25.4342C33.4311 25.4342 32.4594 26.4246 32.4594 28.0667H32.3018C32.3018 26.4246 31.3039 25.4342 29.6757 25.4342V25.33C31.3302 25.33 32.3281 24.3395 32.3281 22.6975H32.4857C32.4594 24.3135 33.4311 25.33 35.0856 25.33Z" fill="#232323"/>
<path d="M33 78.4198V78.5801C30.8462 78.5801 29.6077 79.8626 29.6077 82H29.3923C29.3923 79.8626 28.1 78.5801 26 78.5801V78.4198C28.1 78.4198 29.3923 77.1374 29.3923 75H29.6077C29.6077 77.1374 30.8462 78.4198 33 78.4198Z" fill="#232323"/>
<path d="M50.2596 32.9923L51.5727 50.9242C51.7565 53.296 49.7344 55.2508 47.3445 55.0423C44.981 54.8338 43.3527 52.5662 43.9305 50.2726L48.3162 32.8098C48.6051 31.7412 50.1808 31.8715 50.2596 32.9923Z" fill="#FF592C" stroke="#232323" stroke-width="1.4" stroke-miterlimit="10"/>
<path d="M28.9926 33.9829L22.1646 50.6377C21.2717 52.8531 18.5667 53.7132 16.5445 52.4621C14.5224 51.2371 14.0759 48.5004 15.6254 46.702L27.3119 32.9924C28.0472 32.1323 29.4128 32.9664 28.9926 33.9829Z" fill="#FF592C" stroke="#232323" stroke-width="1.4" stroke-miterlimit="10"/>
<path d="M16.7023 52.5926C16.7023 52.5926 14.4438 55.5117 14.5751 57.7532C14.7064 60.5421 16.571 62.1841 15.5205 63.8782C14.0761 66.1979 11.6863 65.807 10.5045 67.7096C9.4015 69.482 11.1873 71.515 10.0843 73.2873C9.0601 74.9293 6.30261 75.7634 3.99157 74.3298C1.78558 72.9745 2.02193 69.9772 3.30876 68.4915C4.91073 66.6671 6.98542 66.9538 7.90458 65.4681C8.82374 63.9825 6.59149 61.4282 8.5086 58.3527C10.4257 55.2772 16.1508 52.2538 16.1508 52.2538L16.7023 52.5926Z" stroke="#232323" stroke-width="1.4" stroke-miterlimit="10"/>
<path d="M9.8964 12.9438L8.90271 13.93L20.6388 25.5776L21.6325 24.5914L9.8964 12.9438Z" fill="#232323"/>
<path d="M43.5323 13.7045L42.2335 13.1818L38.957 21.2007L40.2557 21.7234L43.5323 13.7045Z" fill="#232323"/>
<path d="M78.1238 13.7045L76.8251 13.1818L73.5485 21.2007L74.8473 21.7234L78.1238 13.7045Z" fill="#232323"/>
<path d="M1.20833 31.2881L0.935181 32.6612L9.48931 34.3373L9.76247 32.9642L1.20833 31.2881Z" fill="#232323"/>
<path d="M22.4018 57.5888H6.74585V93.9598H22.4018V57.5888Z" fill="#FBFBFB" stroke="#232323" stroke-width="1.4" stroke-miterlimit="10"/>
<path d="M59.8853 66.6817H44.3567V93.9599H59.8853V66.6817Z" fill="#FBFBFB" stroke="#232323" stroke-width="1.4" stroke-miterlimit="10"/>
<path d="M6.80139 57.5708C6.80139 57.5708 9.53262 62.4448 14.7325 62.4448C20.2737 62.4448 22.3484 57.5708 22.3484 57.5708" stroke="#232323" stroke-width="1.4" stroke-miterlimit="10"/>
<path d="M6.80139 65.4158C6.80139 65.4158 9.53262 70.2897 14.7325 70.2897C20.2737 70.2897 22.3484 65.4158 22.3484 65.4158" stroke="#232323" stroke-width="1.4" stroke-miterlimit="10"/>
<path d="M44.3256 66.7192C44.3256 66.7192 46.6891 70.8895 52.1516 70.8895C57.614 70.8895 59.8726 66.7192 59.8726 66.7192" stroke="#232323" stroke-width="1.4" stroke-miterlimit="10"/>
<path d="M44.3256 74.0951C44.3256 74.0951 46.6891 78.2653 52.1516 78.2653C57.614 78.2653 59.8726 74.0951 59.8726 74.0951" stroke="#232323" stroke-width="1.4" stroke-miterlimit="10"/>
<path d="M15.9937 57.5446C11.0828 57.5446 9.16566 53.3222 9.55959 49.9078C10.1373 45.1903 13.6039 40.9158 16.1513 38.5701C19.2765 35.7291 19.1189 32.6015 21.5612 32.7057C23.6884 32.7839 23.5046 37.319 22.0602 39.1695C20.6158 41.0201 13.6827 49.0738 16.0988 51.2371C19.5653 54.3387 22.9794 46.1547 25.0803 47.1451C26.7086 47.927 25.5268 50.6898 24.2662 52.3579C21.9289 55.4334 19.2239 57.5446 15.9937 57.5446Z" fill="#FBFBFB" stroke="#232323" stroke-width="1.4" stroke-miterlimit="10"/>
<path d="M51.285 52.9314C51.285 52.9314 56.301 55.7202 57.0101 60.6463C57.509 64.1128 55.6707 66.224 53.4385 66.6149C50.0507 67.1883 46.1902 64.3474 44.6933 62.9139C43.1176 61.4282 41.6732 58.7697 43.0388 57.7793C44.5094 56.7107 45.9801 58.9521 48.4225 59.5256C51.3638 60.2032 51.6264 58.5612 51.6264 58.5612" fill="#FBFBFB"/>
<path d="M51.285 52.9314C51.285 52.9314 56.301 55.7202 57.0101 60.6463C57.509 64.1128 55.6707 66.224 53.4385 66.6149C50.0507 67.1883 46.1902 64.3474 44.6933 62.9139C43.1176 61.4282 41.6732 58.7697 43.0388 57.7793C44.5094 56.7107 45.9801 58.9521 48.4225 59.5256C51.3638 60.2032 51.6264 58.5612 51.6264 58.5612" stroke="#232323" stroke-width="1.4" stroke-miterlimit="10"/>
<path d="M65.8324 47.3278C65.4122 46.2853 65.596 44.6432 67.0404 43.8353C68.3272 43.1055 68.9838 43.6268 70.0605 42.8709C71.4524 41.9065 71.61 39.665 73.2119 39.0134C75.1816 38.2315 76.7048 39.5608 78.937 39.7172C82.0884 39.9257 84.6884 38.2837 84.6884 38.2837" stroke="#232323" stroke-width="1.4" stroke-miterlimit="10"/>
<path d="M103.097 26.0075L86.7889 33.8527C84.6355 34.8953 83.9264 37.6059 85.3183 39.5607C86.6839 41.4894 89.4676 41.7501 91.1746 40.108L104.2 27.5974C105.015 26.8155 104.095 25.5383 103.097 26.0075Z" fill="#FF592C" stroke="#232323" stroke-width="1.4" stroke-miterlimit="10"/>
<path d="M85.1876 39.4044C85.1876 39.4044 82.4039 41.8284 80.1454 41.8545C77.3353 41.9066 75.5495 40.1603 73.9213 41.3332C71.6891 42.9231 72.2406 45.2428 70.4022 46.5459C68.6952 47.7449 67.4347 46.2592 65.7276 47.4582C64.1257 48.5789 64.1257 50.6901 65.36 52.3842C66.8569 54.4954 68.8265 54.5997 70.1134 53.6874C71.7678 52.5146 71.4264 49.9342 72.8446 48.9438C74.2627 47.9534 76.9939 49.9864 79.9615 47.8752C82.9291 45.764 85.5815 39.9257 85.5815 39.9257L85.1876 39.4044Z" stroke="#232323" stroke-width="1.4" stroke-miterlimit="10"/>
<path d="M79.5156 45.5958C79.5156 45.5958 79.6148 43.4423 77.7477 40.9807C76.6566 39.551 75.5298 38.8474 75.7736 37.7216C75.994 36.6704 77.3727 36.6602 77.3727 36.6602L82.1428 38.9007L79.5156 45.5958Z" fill="#FBFBFB" stroke="#232323" stroke-width="1.4" stroke-miterlimit="10" stroke-linecap="round" stroke-linejoin="round"/>
<path d="M78.4665 33.968C78.4665 33.968 77.4185 34.3263 77.2264 35.55C77.0343 36.7738 77.8292 37.9207 78.2997 39.0492C79.2314 41.2486 79.1324 43.839 79.1324 43.839C79.1324 43.839 82.8251 40.6679 82.0262 37.6086C81.2774 34.5648 78.4665 33.968 78.4665 33.968Z" fill="#FBFBFB" stroke="#232323" stroke-width="1.4" stroke-miterlimit="10"/>
<path d="M88.3247 96.9466L71.3769 91.7023L77.6943 51.0387L93.3254 51.3707L88.3247 96.9466Z" fill="#FBFBFB" stroke="#232323" stroke-width="1.4" stroke-miterlimit="10"/>
<path d="M77.6947 51.039C77.6947 51.039 80.2803 55.4157 85.4615 55.7358C90.7508 56.062 93.2928 51.3882 93.2928 51.3882" stroke="#232323" stroke-width="1.4" stroke-miterlimit="10"/>
<path d="M76.7479 57.4622C76.7479 57.4622 79.4478 61.7377 84.6541 62.0655C89.9434 62.3918 92.5999 58.0537 92.5999 58.0537" stroke="#232323" stroke-width="1.4" stroke-miterlimit="10"/>
<path d="M93.5826 40.6658C92.844 39.4271 91.3105 40.0173 90.318 41.5121C89.5838 42.6227 87.5389 45.1024 86.174 44.5436C83.9802 43.6463 86.2655 39.4391 84.0999 35.3016C83.0822 33.3759 81.463 31.7008 79.6694 32.156C78.7686 32.396 78.2301 33.3214 78.4688 34.4874C78.7075 35.6533 79.9112 36.4626 80.2752 37.6673C80.9939 40.0193 78.5625 43.5534 78.9024 46.4979C79.2312 49.3026 81.7872 50.8853 84.1013 51.1372C86.4155 51.3892 88.8166 50.1391 90.7253 47.9177C92.5197 45.7973 94.3116 41.847 93.5826 40.6658Z" fill="#FBFBFB" stroke="#232323" stroke-width="1.4" stroke-miterlimit="10"/>
<path d="M98 69.9698C99.1046 69.9698 100 69.0811 100 67.9849C100 66.8887 99.1046 66 98 66C96.8954 66 96 66.8887 96 67.9849C96 69.0811 96.8954 69.9698 98 69.9698Z" fill="#232323"/>
<path d="M97.5114 21C98.3462 21 99.0229 20.3284 99.0229 19.5C99.0229 18.6716 98.3462 18 97.5114 18C96.6767 18 96 18.6716 96 19.5C96 20.3284 96.6767 21 97.5114 21Z" fill="#232323"/>
</g>
<defs>
<clipPath id="clip0">
<rect width="109" height="88" fill="white"/>
</clipPath>
</defs>
</svg>
