<svg viewBox="0 0 24 24" fill="none" xmlns="http://www.w3.org/2000/svg">
<path fill-rule="evenodd" clip-rule="evenodd" d="M12 24C18.6274 24 24 18.6274 24 12C24 5.37258 18.6274 0 12 0C5.37258 0 0 5.37258 0 12C0 18.6274 5.37258 24 12 24ZM17.6005 5.63315V4.89783L16.8661 4.934C15.3909 5.00663 14.3339 5.56976 13.6454 6.12479C13.5939 6.16629 13.5446 6.20772 13.4972 6.24886C13.3858 5.99734 13.2634 5.77245 13.1416 5.57584C12.9408 5.25172 12.7392 5.00042 12.5851 4.82759C12.5078 4.74097 12.442 4.67343 12.3933 4.62568C12.3689 4.60178 12.3488 4.58278 12.3336 4.56877L12.3147 4.55147L12.3082 4.54564L12.3057 4.54342L12.3046 4.54249L12.3041 4.54207C12.3039 4.54188 12.3037 4.54168 11.8426 5.0684L12.3037 4.54168L11.8338 4.1304L11.3718 4.55042L11.8426 5.0684C11.3718 4.55042 11.3716 4.55062 11.3713 4.55082L11.3709 4.55125L11.3698 4.5522L11.3674 4.55445L11.361 4.56036L11.3426 4.57781C11.3279 4.59192 11.3084 4.61102 11.2849 4.63501C11.2378 4.68296 11.1742 4.75067 11.0997 4.83744C10.951 5.0106 10.7569 5.26198 10.5636 5.58586C10.456 5.76629 10.348 5.9703 10.2482 6.19663C10.1903 6.14805 10.1292 6.099 10.065 6.04984C9.37083 5.51857 8.31201 4.98071 6.84524 4.90849L6.11082 4.87233V5.60764C6.11082 7.91345 7.21133 9.45341 8.29296 10.397C8.70753 10.7587 9.12077 11.0348 9.47204 11.2378C8.98532 11.8044 8.69196 12.5369 8.69196 13.3325V13.3714L8.69627 13.4101L8.96799 15.8451C7.69756 16.2039 6.78477 16.8018 6.78477 17.4202C6.78477 18.4728 9.10513 19.3201 11.9469 19.3201C14.7887 19.3201 17.1091 18.4728 17.1091 17.4202C17.1091 16.7892 16.2054 16.1979 14.9267 15.837L15.248 13.4249L15.2541 13.3789V13.3325C15.2541 12.4745 14.9179 11.7026 14.3752 11.1275C14.6908 10.9386 15.0452 10.6958 15.4006 10.3913C16.4896 9.45829 17.6005 7.93007 17.6005 5.63315ZM13.9505 8.38036C13.9505 8.1906 13.9403 8.00702 13.9217 7.82984C13.9381 7.80795 13.9568 7.78385 13.9777 7.75784C14.0927 7.61486 14.2729 7.4172 14.5241 7.2147C14.8956 6.91524 15.4247 6.60243 16.1396 6.43976C15.931 7.77946 15.2181 8.70416 14.4897 9.32817C14.1966 9.57925 13.9025 9.77981 13.6409 9.93534C13.81 9.49594 13.9505 8.95876 13.9505 8.38036ZM12.0806 11.4937H11.8649C10.8764 11.5487 10.1112 12.3521 10.0923 13.2967L10.5494 17.3927L10.6087 17.3999C10.9676 17.4426 11.4604 17.4849 11.9991 17.4849C12.5359 17.4849 12.9875 17.4492 13.3044 17.4135L13.8536 13.2898C13.8311 12.3334 13.0525 11.548 12.0806 11.4937ZM11.973 10.0907L12.0142 10.091C12.0684 9.99926 12.1295 9.88844 12.1906 9.76263C12.3818 9.36895 12.5505 8.87478 12.5505 8.38036C12.5505 7.50315 12.2542 6.80165 11.9515 6.31322C11.9187 6.26027 11.8859 6.21002 11.8536 6.16253C11.8246 6.20705 11.7953 6.25395 11.7659 6.3032C11.4743 6.79188 11.1869 7.49689 11.1869 8.38036C11.1869 9.00389 11.3761 9.4885 11.564 9.81752C11.6274 9.92847 11.6902 10.0209 11.7447 10.0937H11.831C11.8781 10.0917 11.9254 10.0907 11.973 10.0907ZM9.21332 9.34207C9.5175 9.60744 9.82277 9.81725 10.091 9.97767C9.91803 9.54385 9.78691 9.00771 9.78691 8.38036C9.78691 8.16178 9.79995 7.95138 9.82362 7.74953C9.80736 7.72924 9.78903 7.70699 9.76859 7.68303C9.65195 7.54631 9.46882 7.35652 9.21414 7.16161C8.83571 6.87199 8.29612 6.56805 7.56972 6.4102C7.77524 7.76959 8.48757 8.70892 9.21332 9.34207Z" fill="#FF592C"/>
</svg>
